<svg width="24" height="24" viewBox="0 0 24 24" fill="none" xmlns="http://www.w3.org/2000/svg">
<path d="M0 12C0 5.37258 5.37258 0 12 0V0C18.6274 0 24 5.37258 24 12V12C24 18.6274 18.6274 24 12 24V24C5.37258 24 0 18.6274 0 12V12Z" fill="#EA580C"/>
<path d="M17.3334 10.6663C17.3334 13.995 13.6407 17.4617 12.4007 18.5323C12.2852 18.6192 12.1446 18.6662 12 18.6662C11.8555 18.6662 11.7149 18.6192 11.5994 18.5323C10.3594 17.4617 6.66669 13.995 6.66669 10.6663C6.66669 9.25185 7.22859 7.8953 8.22878 6.89511C9.22898 5.89491 10.5855 5.33301 12 5.33301C13.4145 5.33301 14.7711 5.89491 15.7713 6.89511C16.7715 7.8953 17.3334 9.25185 17.3334 10.6663Z" stroke="white" stroke-width="2" stroke-linecap="round" stroke-linejoin="round"/>
<path d="M12 12.666C13.1046 12.666 14 11.7706 14 10.666C14 9.56145 13.1046 8.66602 12 8.66602C10.8954 8.66602 10 9.56145 10 10.666C10 11.7706 10.8954 12.666 12 12.666Z" stroke="white" stroke-width="2" stroke-linecap="round" stroke-linejoin="round"/>
</svg>
