<svg width="24" height="23" viewBox="0 0 24 23" fill="none" xmlns="http://www.w3.org/2000/svg">
<path d="M0 11.5C0 5.14873 5.14873 0 11.5 0H12.5C18.8513 0 24 5.14873 24 11.5V11.5C24 17.8513 18.8513 23 12.5 23H11.5C5.14873 23 0 17.8513 0 11.5V11.5Z" fill="#EA580C"/>
<path d="M12 17.3438L11.0938 16.5188C7.875 13.6 5.75 11.6687 5.75 9.3125C5.75 7.38125 7.2625 5.875 9.1875 5.875C10.275 5.875 11.3187 6.38125 12 7.175C12.6813 6.38125 13.725 5.875 14.8125 5.875C16.7375 5.875 18.25 7.38125 18.25 9.3125C18.25 11.6687 16.125 13.6 12.9062 16.5188L12 17.3438Z" fill="white"/>
</svg>
