<svg width="24" height="25" viewBox="0 0 24 25" fill="none" xmlns="http://www.w3.org/2000/svg">
<path d="M0 12C0 5.37258 5.37258 0 12 0V0C18.6274 0 24 5.37258 24 12V12.3841C24 19.0115 18.6274 24.3841 12 24.3841V24.3841C5.37258 24.3841 0 19.0115 0 12.3841V12Z" fill="#EA580C"/>
<g clip-path="url(#clip0_157_2604)">
<path d="M10.0394 7.29867C10.438 6.132 12.05 6.09667 12.5227 7.19267L12.5627 7.29933L13.1007 8.87267C13.224 9.23349 13.4232 9.56367 13.685 9.84095C13.9467 10.1182 14.2649 10.3361 14.618 10.48L14.7627 10.534L16.336 11.0713C17.5027 11.47 17.538 13.082 16.4427 13.5547L16.336 13.5947L14.7627 14.1327C14.4017 14.2559 14.0714 14.4551 13.794 14.7168C13.5166 14.9786 13.2986 15.2968 13.1547 15.65L13.1007 15.794L12.5634 17.368C12.1647 18.5347 10.5527 18.57 10.0807 17.4747L10.0394 17.368L9.50203 15.7947C9.37881 15.4337 9.17961 15.1034 8.91785 14.826C8.6561 14.5486 8.33789 14.3306 7.98469 14.1867L7.84069 14.1327L6.26736 13.5953C5.10003 13.1967 5.06469 11.5847 6.16069 11.1127L6.26736 11.0713L7.84069 10.534C8.20152 10.4107 8.5317 10.2115 8.80898 9.94971C9.08625 9.68796 9.30417 9.36979 9.44803 9.01667L9.50203 8.87267L10.0394 7.29867ZM16.6347 5C16.7594 5 16.8816 5.03499 16.9875 5.10098C17.0933 5.16698 17.1785 5.26134 17.2334 5.37333L17.2654 5.45133L17.4987 6.13533L18.1834 6.36867C18.3083 6.41113 18.4179 6.48974 18.4982 6.59454C18.5784 6.69934 18.6258 6.82561 18.6342 6.95735C18.6426 7.08908 18.6118 7.22035 18.5455 7.33453C18.4792 7.4487 18.3806 7.54063 18.262 7.59867L18.1834 7.63067L17.4994 7.864L17.266 8.54867C17.2235 8.67362 17.1448 8.78313 17.04 8.86333C16.9351 8.94352 16.8089 8.99079 16.6771 8.99915C16.5454 9.0075 16.4141 8.97656 16.3 8.91025C16.1859 8.84394 16.094 8.74524 16.036 8.62667L16.004 8.54867L15.7707 7.86467L15.086 7.63133C14.961 7.58887 14.8515 7.51026 14.7712 7.40546C14.6909 7.30066 14.6436 7.17439 14.6352 7.04265C14.6268 6.91092 14.6576 6.77965 14.7239 6.66548C14.7901 6.5513 14.8888 6.45937 15.0074 6.40133L15.086 6.36933L15.77 6.136L16.0034 5.45133C16.0483 5.31962 16.1334 5.20527 16.2466 5.12433C16.3598 5.04339 16.4955 4.99992 16.6347 5Z" fill="white"/>
</g>
<defs>
<clipPath id="clip0_157_2604">
<rect width="13.2711" height="16.3841" fill="white" transform="translate(5.36444 4)"/>
</clipPath>
</defs>
</svg>
