<svg width="96" height="96" viewBox="0 0 96 96" fill="none" xmlns="http://www.w3.org/2000/svg">
<circle cx="48" cy="48" r="29" fill="#FF7226"/>
<path d="M48.4998 7.93007e-06L53.9998 14H42.9998L48.4998 7.93007e-06Z" fill="#FF7226"/>
<path d="M0 47.5L13.5 41.8708V53.1292L0 47.5Z" fill="#FF7226"/>
<path d="M13.5246 14.5467L27.026 20.5438L19.5212 28.0491L13.5246 14.5467Z" fill="#FF7226"/>
<path d="M47.9999 96L41.9999 82H53.9999L47.9999 96Z" fill="#FF7226"/>
<path d="M13.5245 80.6564L19.5211 67.154L27.026 74.6594L13.5245 80.6564Z" fill="#FF7226"/>
<path d="M81.7023 80.9354L68.2009 74.9383L75.7057 67.433L81.7023 80.9354Z" fill="#FF7226"/>
<path d="M81.9266 13.9661L75.93 27.4685L68.4252 19.9632L81.9266 13.9661Z" fill="#FF7226"/>
<path d="M96 47.5L82.5 53.1292V41.8708L96 47.5Z" fill="#FF7226"/>
</svg>
