<svg width="16" height="16" viewBox="0 0 16 16" fill="none" xmlns="http://www.w3.org/2000/svg">
<g clip-path="url(#clip0_244_307)">
<path d="M7.99998 14.6663C8.87562 14.6674 9.74284 14.4955 10.5518 14.1604C11.3608 13.8253 12.0956 13.3336 12.714 12.7137C13.3339 12.0953 13.8256 11.3605 14.1607 10.5515C14.4958 9.74254 14.6677 8.87532 14.6667 7.99968C14.6677 7.12404 14.4958 6.25682 14.1607 5.44784C13.8256 4.63886 13.3339 3.90407 12.714 3.28568C12.0956 2.66573 11.3608 2.17409 10.5518 1.83898C9.74284 1.50388 8.87562 1.33193 7.99998 1.33301C7.12435 1.33193 6.25713 1.50388 5.44815 1.83898C4.63917 2.17409 3.90438 2.66573 3.28598 3.28568C2.66604 3.90407 2.17439 4.63886 1.83929 5.44784C1.50419 6.25682 1.33224 7.12404 1.33332 7.99968C1.33224 8.87532 1.50419 9.74254 1.83929 10.5515C2.17439 11.3605 2.66604 12.0953 3.28598 12.7137C3.90438 13.3336 4.63917 13.8253 5.44815 14.1604C6.25713 14.4955 7.12435 14.6674 7.99998 14.6663Z" stroke="#4ADE80" stroke-width="2" stroke-linejoin="round"/>
<path d="M5.33331 8L7.33331 10L11.3333 6" stroke="#4ADE80" stroke-width="2" stroke-linecap="round" stroke-linejoin="round"/>
</g>
<defs>
<clipPath id="clip0_244_307">
<rect width="16" height="16" fill="white"/>
</clipPath>
</defs>
</svg>
