<svg width="24" height="25" viewBox="0 0 24 25" fill="none" xmlns="http://www.w3.org/2000/svg">
<g clip-path="url(#clip0_107_1321)">
<path fill-rule="evenodd" clip-rule="evenodd" d="M8.29303 13.2073C8.10556 13.0198 8.00024 12.7655 8.00024 12.5003C8.00024 12.2352 8.10556 11.9809 8.29303 11.7933L13.95 6.13634C14.0423 6.04083 14.1526 5.96465 14.2746 5.91224C14.3966 5.85983 14.5279 5.83225 14.6606 5.83109C14.7934 5.82994 14.9251 5.85524 15.048 5.90552C15.1709 5.9558 15.2825 6.03006 15.3764 6.12395C15.4703 6.21784 15.5446 6.32949 15.5949 6.45239C15.6451 6.57529 15.6704 6.70696 15.6693 6.83974C15.6681 6.97252 15.6405 7.10374 15.5881 7.22575C15.5357 7.34775 15.4595 7.4581 15.364 7.55034L10.414 12.5003L15.364 17.4503C15.5462 17.6389 15.647 17.8915 15.6447 18.1537C15.6424 18.4159 15.5373 18.6668 15.3518 18.8522C15.1664 19.0376 14.9156 19.1427 14.6534 19.145C14.3912 19.1473 14.1386 19.0465 13.95 18.8643L8.29303 13.2073Z" fill="black"/>
</g>
<defs>
<clipPath id="clip0_107_1321">
<rect width="24" height="24" fill="white" transform="translate(0 0.5)"/>
</clipPath>
</defs>
</svg>
