<svg width="16" height="16" viewBox="0 0 16 16" fill="none" xmlns="http://www.w3.org/2000/svg">
<g clip-path="url(#clip0_244_311)">
<path d="M0 8C0 3.58172 3.58172 0 8 0V0C12.4183 0 16 3.58172 16 8V8C16 12.4183 12.4183 16 8 16V16C3.58172 16 0 12.4183 0 8V8Z" fill="#BBF7D0"/>
<path d="M9.56871 3.27273V12H7.72354V5.02415H7.67241L5.67383 6.27699V4.64062L7.83434 3.27273H9.56871Z" fill="#22C55E"/>
</g>
<defs>
<clipPath id="clip0_244_311">
<path d="M0 8C0 3.58172 3.58172 0 8 0V0C12.4183 0 16 3.58172 16 8V8C16 12.4183 12.4183 16 8 16V16C3.58172 16 0 12.4183 0 8V8Z" fill="white"/>
</clipPath>
</defs>
</svg>
