<svg width="16" height="16" viewBox="0 0 16 16" fill="none" xmlns="http://www.w3.org/2000/svg">
<g clip-path="url(#clip0_107_2130)">
<path d="M0 8C0 3.58172 3.58172 0 8 0C12.4183 0 16 3.58172 16 8C16 12.4183 12.4183 16 8 16C3.58172 16 0 12.4183 0 8Z" fill="#BFDBFE"/>
<path d="M4.92809 12V10.6705L8.03462 7.79403C8.29883 7.53835 8.52042 7.30824 8.6994 7.10369C8.88121 6.89915 9.019 6.69886 9.11275 6.50284C9.2065 6.30398 9.25337 6.08949 9.25337 5.85938C9.25337 5.60369 9.19514 5.38352 9.07866 5.19886C8.96218 5.01136 8.80309 4.8679 8.60139 4.76847C8.39968 4.66619 8.17099 4.61506 7.91531 4.61506C7.64826 4.61506 7.41531 4.66903 7.21644 4.77699C7.01758 4.88494 6.86417 5.03977 6.75621 5.24148C6.64826 5.44318 6.59428 5.68324 6.59428 5.96165H4.84286C4.84286 5.39062 4.97212 4.89489 5.23065 4.47443C5.48917 4.05398 5.85138 3.72869 6.31729 3.49858C6.7832 3.26847 7.32013 3.15341 7.92809 3.15341C8.55309 3.15341 9.09712 3.2642 9.56019 3.4858C10.0261 3.70455 10.3883 4.00852 10.6468 4.39773C10.9054 4.78693 11.0346 5.23295 11.0346 5.7358C11.0346 6.06534 10.9693 6.39062 10.8386 6.71165C10.7108 7.03267 10.4821 7.3892 10.1525 7.78125C9.82298 8.17045 9.35849 8.63778 8.75906 9.18324L7.48491 10.4318V10.4915H11.1497V12H4.92809Z" fill="#3B82F6"/>
</g>
<defs>
<clipPath id="clip0_107_2130">
<path d="M0 8C0 3.58172 3.58172 0 8 0C12.4183 0 16 3.58172 16 8C16 12.4183 12.4183 16 8 16C3.58172 16 0 12.4183 0 8Z" fill="white"/>
</clipPath>
</defs>
</svg>
