<svg width="16" height="16" viewBox="0 0 16 16" fill="none" xmlns="http://www.w3.org/2000/svg">
<g clip-path="url(#clip0_107_2136)">
<path d="M0 8C0 3.58172 3.58172 0 8 0C12.4183 0 16 3.58172 16 8C16 12.4183 12.4183 16 8 16C3.58172 16 0 12.4183 0 8Z" fill="#E9D5FF"/>
<path d="M7.97816 12.1193C7.3418 12.1193 6.77504 12.0099 6.27788 11.7912C5.78356 11.5696 5.39293 11.2656 5.106 10.8793C4.82191 10.4901 4.6756 10.0412 4.66708 9.53267H6.52504C6.5364 9.74574 6.606 9.93324 6.73384 10.0952C6.86452 10.2543 7.03782 10.3778 7.25373 10.4659C7.46964 10.554 7.71254 10.598 7.98242 10.598C8.26367 10.598 8.51225 10.5483 8.72816 10.4489C8.94407 10.3494 9.1131 10.2116 9.23526 10.0355C9.35742 9.85937 9.4185 9.65625 9.4185 9.42614C9.4185 9.19318 9.35316 8.98722 9.22248 8.80824C9.09464 8.62642 8.90998 8.48437 8.6685 8.3821C8.42987 8.27983 8.14577 8.22869 7.81623 8.22869H7.00231V6.87358H7.81623C8.09464 6.87358 8.34038 6.82528 8.55344 6.72869C8.76935 6.6321 8.93697 6.49858 9.05629 6.32812C9.1756 6.15483 9.23526 5.95312 9.23526 5.72301C9.23526 5.50426 9.18271 5.3125 9.07759 5.14773C8.97532 4.98011 8.83043 4.84943 8.64293 4.75568C8.45827 4.66193 8.24237 4.61506 7.99521 4.61506C7.74521 4.61506 7.51651 4.66051 7.30913 4.75142C7.10174 4.83949 6.93555 4.96591 6.81055 5.13068C6.68555 5.29545 6.61879 5.48864 6.61026 5.71023H4.8418C4.85032 5.20739 4.99379 4.7642 5.27219 4.38068C5.5506 3.99716 5.9256 3.69744 6.39719 3.48153C6.87163 3.26278 7.40714 3.15341 8.00373 3.15341C8.606 3.15341 9.13299 3.26278 9.58469 3.48153C10.0364 3.70028 10.3873 3.99574 10.6373 4.3679C10.8901 4.73722 11.0151 5.15199 11.0123 5.61222C11.0151 6.10085 10.8631 6.50852 10.5563 6.83523C10.2523 7.16193 9.856 7.36932 9.36737 7.45739V7.52557C10.0094 7.60795 10.498 7.83097 10.8333 8.1946C11.1713 8.5554 11.339 9.0071 11.3361 9.54972C11.339 10.0469 11.1955 10.4886 10.9057 10.875C10.6188 11.2614 10.2225 11.5653 9.7168 11.7869C9.21112 12.0085 8.63157 12.1193 7.97816 12.1193Z" fill="#A855F7"/>
</g>
<defs>
<clipPath id="clip0_107_2136">
<path d="M0 8C0 3.58172 3.58172 0 8 0C12.4183 0 16 3.58172 16 8C16 12.4183 12.4183 16 8 16C3.58172 16 0 12.4183 0 8Z" fill="white"/>
</clipPath>
</defs>
</svg>
