<svg width="32" height="32" viewBox="0 0 32 32" fill="none" xmlns="http://www.w3.org/2000/svg">
<path fill-rule="evenodd" clip-rule="evenodd" d="M4.33827 24.6356C3.90938 25.0644 3.32767 25.3054 2.72113 25.3054C2.11458 25.3054 1.53288 25.0644 1.10399 24.6356C0.675093 24.2067 0.434143 23.625 0.434143 23.0184C0.434143 22.4119 0.675093 21.8302 1.10399 21.4013L8.72227 13.7853L8.73827 13.7693C9.36072 13.1596 10.1973 12.8182 11.0686 12.8182C11.9398 12.8182 12.7764 13.1596 13.3988 13.7693L13.4148 13.7853L17.3028 17.6733L22.6674 12.0001L20.2903 9.62298C20.0508 9.38324 19.8878 9.07792 19.8218 8.74558C19.7558 8.41324 19.7897 8.06878 19.9193 7.75573C20.049 7.44267 20.2684 7.17504 20.5501 6.98665C20.8317 6.79827 21.1629 6.69756 21.5017 6.69727H29.8514C30.3061 6.69727 30.7421 6.87788 31.0636 7.19937C31.3851 7.52086 31.5657 7.95689 31.5657 8.41155V16.759C31.5654 17.0978 31.4647 17.429 31.2763 17.7106C31.0879 17.9922 30.8203 18.2117 30.5072 18.3414C30.1942 18.471 29.8497 18.5049 29.5174 18.4389C29.185 18.3729 28.8797 18.2099 28.64 17.9704L25.9017 15.2321L19.7211 21.7716L19.6594 21.8333C19.037 22.4429 18.2004 22.7844 17.3291 22.7844C16.4579 22.7844 15.6213 22.4429 14.9988 21.8333L14.9828 21.8173L11.0674 17.9041L4.33827 24.6356Z" fill="#059669"/>
</svg>
