<svg width="36" height="36" viewBox="0 0 36 36" fill="none" xmlns="http://www.w3.org/2000/svg">
<path d="M18 32.2502C14.675 32.2502 11.8435 31.1002 9.5055 28.8002C7.1675 26.5002 5.999 23.7002 6 20.4002C6 18.8252 6.3065 17.3192 6.9195 15.8822C7.5325 14.4452 8.401 13.1762 9.525 12.0752L15.9 5.8127C16.2 5.5377 16.5315 5.3252 16.8945 5.1752C17.2575 5.0252 17.626 4.9502 18 4.9502C18.374 4.9502 18.743 5.0252 19.107 5.1752C19.471 5.3252 19.802 5.5377 20.1 5.8127L26.475 12.0752C27.6 13.1752 28.469 14.4442 29.082 15.8822C29.695 17.3202 30.001 18.8262 30 20.4002C30 23.7002 28.8315 26.5002 26.4945 28.8002C24.1575 31.1002 21.326 32.2502 18 32.2502ZM18 29.2502C20.5 29.2502 22.625 28.3937 24.375 26.6807C26.125 24.9677 27 22.8742 27 20.4002C27 19.2252 26.775 18.1067 26.325 17.0447C25.875 15.9827 25.225 15.0512 24.375 14.2502L18 7.9502L11.625 14.2502C10.775 15.0502 10.125 15.9817 9.675 17.0447C9.225 18.1077 9 19.2262 9 20.4002C9 22.8752 9.875 24.9692 11.625 26.6822C13.375 28.3952 15.5 29.2512 18 29.2502Z" fill="#6366F1"/>
</svg>
