<svg width="36" height="36" viewBox="0 0 36 36" fill="none" xmlns="http://www.w3.org/2000/svg">
<path d="M18 28.5C18.3978 28.5 18.7793 28.658 19.0606 28.9393C19.342 29.2206 19.5 29.6022 19.5 30V31.5C19.5 31.8978 19.342 32.2794 19.0606 32.5607C18.7793 32.842 18.3978 33 18 33C17.6022 33 17.2206 32.842 16.9393 32.5607C16.658 32.2794 16.5 31.8978 16.5 31.5V30C16.5 29.6022 16.658 29.2206 16.9393 28.9393C17.2206 28.658 17.6022 28.5 18 28.5ZM27.546 25.425L28.6065 26.4855C28.8797 26.7684 29.0309 27.1473 29.0275 27.5406C29.0241 27.9339 28.8663 28.3101 28.5882 28.5882C28.3101 28.8663 27.9339 29.0241 27.5406 29.0275C27.1473 29.0309 26.7684 28.8797 26.4855 28.6065L25.425 27.546C25.1517 27.2631 25.0006 26.8842 25.004 26.4909C25.0074 26.0976 25.1651 25.7214 25.4433 25.4433C25.7214 25.1652 26.0976 25.0074 26.4909 25.004C26.8842 25.0006 27.2631 25.1518 27.546 25.425ZM8.45399 25.425C8.72392 25.156 9.08614 24.9998 9.46706 24.9882C9.84799 24.9765 10.2191 25.1103 10.5049 25.3624C10.7908 25.6144 10.9699 25.9658 11.0061 26.3452C11.0422 26.7246 10.9326 27.1035 10.6995 27.405L10.575 27.546L9.51449 28.6065C9.24455 28.8755 8.88233 29.0317 8.50141 29.0433C8.12049 29.055 7.74942 28.9212 7.46357 28.6691C7.17772 28.4171 6.99853 28.0657 6.96239 27.6863C6.92625 27.3069 7.03587 26.928 7.26899 26.6265L7.39349 26.4855L8.45399 25.425ZM18 9C20.3869 9 22.6761 9.94821 24.3639 11.636C26.0518 13.3239 27 15.6131 27 18C27 20.3869 26.0518 22.6761 24.3639 24.364C22.6761 26.0518 20.3869 27 18 27C15.613 27 13.3239 26.0518 11.636 24.364C9.9482 22.6761 8.99999 20.3869 8.99999 18C8.99999 15.6131 9.9482 13.3239 11.636 11.636C13.3239 9.94821 15.613 9 18 9ZM18 12C16.4087 12 14.8826 12.6321 13.7573 13.7574C12.6321 14.8826 12 16.4087 12 18C12 19.5913 12.6321 21.1174 13.7573 22.2426C14.8826 23.3679 16.4087 24 18 24C19.5913 24 21.1174 23.3679 22.2426 22.2426C23.3678 21.1174 24 19.5913 24 18C24 16.4087 23.3678 14.8826 22.2426 13.7574C21.1174 12.6321 19.5913 12 18 12ZM5.99999 16.5C6.38231 16.5004 6.75003 16.6468 7.02804 16.9093C7.30604 17.1717 7.47334 17.5304 7.49574 17.9121C7.51815 18.2938 7.39397 18.6696 7.14859 18.9627C6.9032 19.2559 6.55513 19.4443 6.17549 19.4895L5.99999 19.5H4.49999C4.11767 19.4996 3.74994 19.3532 3.47193 19.0907C3.19393 18.8283 3.02663 18.4696 3.00423 18.0879C2.98182 17.7062 3.106 17.3304 3.35138 17.0373C3.59677 16.7441 3.94484 16.5557 4.32449 16.5105L4.49999 16.5H5.99999ZM31.5 16.5C31.8978 16.5 32.2793 16.658 32.5606 16.9393C32.842 17.2206 33 17.6022 33 18C33 18.3978 32.842 18.7794 32.5606 19.0607C32.2793 19.342 31.8978 19.5 31.5 19.5H30C29.6022 19.5 29.2206 19.342 28.9393 19.0607C28.658 18.7794 28.5 18.3978 28.5 18C28.5 17.6022 28.658 17.2206 28.9393 16.9393C29.2206 16.658 29.6022 16.5 30 16.5H31.5ZM7.39349 7.3935C7.65178 7.13523 7.99543 6.98009 8.35996 6.95717C8.7245 6.93424 9.08488 7.04512 9.37349 7.269L9.51449 7.3935L10.575 8.454C10.844 8.72394 11.0002 9.08615 11.0118 9.46708C11.0235 9.848 10.8897 10.2191 10.6376 10.5049C10.3856 10.7908 10.0342 10.97 9.65477 11.0061C9.27539 11.0422 8.89647 10.9326 8.59499 10.6995L8.45399 10.575L7.39349 9.5145C7.11228 9.23321 6.95431 8.85175 6.95431 8.454C6.95431 8.05625 7.11228 7.67479 7.39349 7.3935ZM28.6065 7.3935C28.8877 7.67479 29.0457 8.05625 29.0457 8.454C29.0457 8.85175 28.8877 9.23321 28.6065 9.5145L27.546 10.575C27.4076 10.7183 27.2421 10.8325 27.0591 10.9112C26.8761 10.9898 26.6793 11.0311 26.4801 11.0329C26.2809 11.0346 26.0834 10.9967 25.8991 10.9212C25.7147 10.8458 25.5472 10.7344 25.4064 10.5936C25.2656 10.4528 25.1542 10.2853 25.0788 10.1009C25.0033 9.91659 24.9654 9.71907 24.9671 9.5199C24.9688 9.32073 25.0102 9.1239 25.0888 8.94089C25.1674 8.75789 25.2817 8.59237 25.425 8.454L26.4855 7.3935C26.7668 7.11229 27.1482 6.95432 27.546 6.95432C27.9437 6.95432 28.3252 7.11229 28.6065 7.3935ZM18 3C18.3978 3 18.7793 3.15804 19.0606 3.43934C19.342 3.72064 19.5 4.10218 19.5 4.5V6C19.5 6.39782 19.342 6.77936 19.0606 7.06066C18.7793 7.34196 18.3978 7.5 18 7.5C17.6022 7.5 17.2206 7.34196 16.9393 7.06066C16.658 6.77936 16.5 6.39782 16.5 6V4.5C16.5 4.10218 16.658 3.72064 16.9393 3.43934C17.2206 3.15804 17.6022 3 18 3Z" fill="#F97316"/>
</svg>
